# Blender v2.80 (sub 39) OBJ File: 'bumboo.blend'
# www.blender.org
mtllib bumboo.mtl
o Cylinder_Cylinder.001
v 0.000000 0.000000 -1.000000
v 0.195090 0.000000 -0.980785
v 0.382683 0.000000 -0.923880
v 0.555570 0.000000 -0.831470
v 0.707107 0.000000 -0.707107
v 0.831470 0.000000 -0.555570
v 0.923880 0.000000 -0.382683
v 0.980785 0.000000 -0.195090
v 1.000000 0.000000 -0.000000
v 0.980785 0.000000 0.195090
v 0.923880 0.000000 0.382683
v 0.831470 0.000000 0.555570
v 0.707107 0.000000 0.707107
v 0.555570 0.000000 0.831470
v 0.382683 0.000000 0.923880
v 0.195090 0.000000 0.980785
v -0.000000 0.000000 1.000000
v -0.000000 20.000000 1.000000
v -0.195091 0.000000 0.980785
v -0.382684 0.000000 0.923879
v -0.555571 0.000000 0.831469
v -0.707107 0.000000 0.707106
v -0.831470 0.000000 0.555570
v -0.923880 0.000000 0.382683
v -0.980785 0.000000 0.195089
v -1.000000 0.000000 -0.000001
v -0.980785 0.000000 -0.195091
v -0.923879 0.000000 -0.382684
v -0.831469 0.000000 -0.555571
v -0.707106 0.000000 -0.707108
v -0.555569 0.000000 -0.831470
v -0.382682 0.000000 -0.923880
v -0.195089 0.000000 -0.980786
v 0.195090 19.931910 0.980785
v 0.555570 19.402790 0.831470
v 0.831470 18.425104 0.555570
v 0.980785 17.147697 0.195090
v 0.980785 15.765045 -0.195090
v 0.831470 14.487637 -0.555570
v 0.555570 13.509954 -0.831470
v 0.195090 12.980835 -0.980785
v 0.000000 12.912745 -1.000000
v 0.382683 19.730255 0.923880
v 0.707107 18.962093 0.707107
v 0.923880 17.812458 0.382683
v 1.000000 16.456371 -0.000000
v 0.923880 15.100285 -0.382683
v 0.707107 13.950651 -0.707107
v 0.382683 13.182487 -0.923880
v -0.195089 12.980835 -0.980786
v -0.555569 13.509953 -0.831470
v -0.831469 14.487637 -0.555571
v -0.980785 15.765043 -0.195091
v -0.980785 17.147697 0.195089
v -0.831470 18.425106 0.555570
v -0.555571 19.402792 0.831469
v -0.195091 19.931910 0.980785
v -0.382682 13.182487 -0.923880
v -0.707106 13.950648 -0.707108
v -0.923879 15.100283 -0.382684
v -1.000000 16.456369 -0.000001
v -0.923880 17.812462 0.382683
v -0.707107 18.962097 0.707106
v -0.382684 19.730257 0.923879
vt 1.000000 0.500000
vt 1.000000 0.822819
vt 0.968750 0.824521
vt 0.968750 0.500000
vt 0.937500 0.829562
vt 0.937500 0.500000
vt 0.906250 0.837749
vt 0.906250 0.500000
vt 0.875000 0.848766
vt 0.875000 0.500000
vt 0.843750 0.862191
vt 0.843750 0.500000
vt 0.812500 0.877507
vt 0.812500 0.500000
vt 0.781250 0.894126
vt 0.781250 0.500000
vt 0.750000 0.911409
vt 0.750000 0.500000
vt 0.718750 0.928692
vt 0.718750 0.500000
vt 0.687500 0.945311
vt 0.687500 0.500000
vt 0.656250 0.960628
vt 0.656250 0.500000
vt 0.625000 0.974052
vt 0.625000 0.500000
vt 0.593750 0.985070
vt 0.593750 0.500000
vt 0.562500 0.993256
vt 0.562500 0.500000
vt 0.531250 0.998298
vt 0.531250 0.500000
vt 0.500000 1.000000
vt 0.500000 0.500000
vt 0.468750 0.998298
vt 0.468750 0.500000
vt 0.437500 0.993256
vt 0.437500 0.500000
vt 0.406250 0.985070
vt 0.406250 0.500000
vt 0.375000 0.974052
vt 0.375000 0.500000
vt 0.343750 0.960628
vt 0.343750 0.500000
vt 0.312500 0.945312
vt 0.312500 0.500000
vt 0.281250 0.928692
vt 0.281250 0.500000
vt 0.250000 0.911409
vt 0.250000 0.500000
vt 0.218750 0.894126
vt 0.218750 0.500000
vt 0.187500 0.877507
vt 0.187500 0.500000
vt 0.156250 0.862191
vt 0.156250 0.500000
vt 0.125000 0.848766
vt 0.125000 0.500000
vt 0.093750 0.837749
vt 0.093750 0.500000
vt 0.062500 0.829562
vt 0.062500 0.500000
vt 0.031250 0.824521
vt 0.031250 0.500000
vt 0.000000 0.822819
vt 0.000000 0.500000
vt 0.750000 0.490000
vt 0.796822 0.485388
vt 0.841844 0.471731
vt 0.883337 0.449553
vt 0.919706 0.419706
vt 0.949553 0.383337
vt 0.971731 0.341844
vt 0.985388 0.296822
vt 0.990000 0.250000
vt 0.985388 0.203178
vt 0.971731 0.158156
vt 0.949553 0.116663
vt 0.919706 0.080294
vt 0.883337 0.050447
vt 0.841844 0.028269
vt 0.796822 0.014612
vt 0.750000 0.010000
vt 0.703178 0.014612
vt 0.658156 0.028269
vt 0.616663 0.050447
vt 0.580294 0.080294
vt 0.550447 0.116663
vt 0.528269 0.158156
vt 0.514611 0.203179
vt 0.510000 0.250000
vt 0.514612 0.296822
vt 0.528269 0.341844
vt 0.550447 0.383337
vt 0.580295 0.419706
vt 0.616663 0.449553
vt 0.658156 0.471731
vt 0.703179 0.485389
vn 0.0980 0.0000 -0.9952
vn 0.2903 0.0000 -0.9569
vn 0.4714 0.0000 -0.8819
vn 0.6344 0.0000 -0.7730
vn 0.7730 0.0000 -0.6344
vn 0.8819 0.0000 -0.4714
vn 0.9569 0.0000 -0.2903
vn 0.9952 0.0000 -0.0980
vn 0.9952 0.0000 0.0980
vn 0.9569 0.0000 0.2903
vn 0.8819 0.0000 0.4714
vn 0.7730 0.0000 0.6344
vn 0.6344 0.0000 0.7730
vn 0.4714 0.0000 0.8819
vn 0.2903 0.0000 0.9569
vn 0.0980 0.0000 0.9952
vn -0.0980 0.0000 0.9952
vn -0.2903 0.0000 0.9569
vn -0.4714 0.0000 0.8819
vn -0.6344 0.0000 0.7730
vn -0.7730 0.0000 0.6344
vn -0.8819 0.0000 0.4714
vn -0.9569 0.0000 0.2903
vn -0.9952 0.0000 0.0980
vn -0.9952 0.0000 -0.0980
vn -0.9569 0.0000 -0.2903
vn -0.8819 0.0000 -0.4714
vn -0.7730 0.0000 -0.6344
vn -0.6344 0.0000 -0.7730
vn -0.4714 0.0000 -0.8819
vn -0.2903 0.0000 -0.9569
vn -0.0980 0.0000 -0.9952
vn 0.0000 -1.0000 0.0000
vn 0.0000 0.2716 -0.9624
usemtl None
s off
f 1/1/1 42/2/1 41/3/1 2/4/1
f 2/4/2 41/3/2 49/5/2 3/6/2
f 3/6/3 49/5/3 40/7/3 4/8/3
f 4/8/4 40/7/4 48/9/4 5/10/4
f 5/10/5 48/9/5 39/11/5 6/12/5
f 6/12/6 39/11/6 47/13/6 7/14/6
f 7/14/7 47/13/7 38/15/7 8/16/7
f 8/16/8 38/15/8 46/17/8 9/18/8
f 9/18/9 46/17/9 37/19/9 10/20/9
f 10/20/10 37/19/10 45/21/10 11/22/10
f 11/22/11 45/21/11 36/23/11 12/24/11
f 12/24/12 36/23/12 44/25/12 13/26/12
f 13/26/13 44/25/13 35/27/13 14/28/13
f 14/28/14 35/27/14 43/29/14 15/30/14
f 15/30/15 43/29/15 34/31/15 16/32/15
f 16/32/16 34/31/16 18/33/16 17/34/16
f 17/34/17 18/33/17 57/35/17 19/36/17
f 19/36/18 57/35/18 64/37/18 20/38/18
f 20/38/19 64/37/19 56/39/19 21/40/19
f 21/40/20 56/39/20 63/41/20 22/42/20
f 22/42/21 63/41/21 55/43/21 23/44/21
f 23/44/22 55/43/22 62/45/22 24/46/22
f 24/46/23 62/45/23 54/47/23 25/48/23
f 25/48/24 54/47/24 61/49/24 26/50/24
f 26/50/25 61/49/25 53/51/25 27/52/25
f 27/52/26 53/51/26 60/53/26 28/54/26
f 28/54/27 60/53/27 52/55/27 29/56/27
f 29/56/28 52/55/28 59/57/28 30/58/28
f 30/58/29 59/57/29 51/59/29 31/60/29
f 31/60/30 51/59/30 58/61/30 32/62/30
f 32/62/31 58/61/31 50/63/31 33/64/31
f 33/64/32 50/63/32 42/65/32 1/66/32
f 1/67/33 2/68/33 3/69/33 4/70/33 5/71/33 6/72/33 7/73/33 8/74/33 9/75/33 10/76/33 11/77/33 12/78/33 13/79/33 14/80/33 15/81/33 16/82/33 17/83/33 19/84/33 20/85/33 21/86/33 22/87/33 23/88/33 24/89/33 25/90/33 26/91/33 27/92/33 28/93/33 29/94/33 30/95/33 31/96/33 32/97/33 33/98/33
f 38/15/34 47/13/34 39/11/34 48/9/34 40/7/34 49/5/34 41/3/34 42/2/34 50/63/34 58/61/34 51/59/34 59/57/34 52/55/34 60/53/34 53/51/34 61/49/34 54/47/34 62/45/34 55/43/34 63/41/34 56/39/34 64/37/34 57/35/34 18/33/34 34/31/34 43/29/34 35/27/34 44/25/34 36/23/34 45/21/34 37/19/34 46/17/34
